<svg id="Layer_2" data-name="Layer 2" xmlns="http://www.w3.org/2000/svg" viewBox="0 0 101.3 87.2">
  <defs>
    <style>
      .cls-1 {
        fill: #143c4b;
      }
    </style>
  </defs>
  <title>cook_icon</title>
  <g>
    <polygon class="cls-1" points="13 28 15 25 12 20 10 20 8 23 11 28 13 28"/>
    <polygon class="cls-1" points="17 15 19 13 18 10 17.2 9 16 11 16 14 17 15"/>
    <path class="cls-1" d="M394-343c0.7-.4.6-2,0-3a2.6,2.6,0,0,0-3-1c-0.7.4-.6,2,0,3A2.6,2.6,0,0,0,394-343Z" transform="translate(-386 381)"/>
    <path class="cls-1" d="M392-335c0.6-.6-0.1-2.1-1-3s-2.4-1.6-3-1,0.1,2.1,1,3S391.4-334.4,392-335Z" transform="translate(-386 381)"/>
    <path class="cls-1" d="M404-349c-0.6,0-.9.8-1,2s0.4,2,1,2,0.9-.8,1-2S404.6-349,404-349Z" transform="translate(-386 381)"/>
    <path class="cls-1" d="M410-345a1.8,1.8,0,0,0,2-1,1.8,1.8,0,0,0-1-2,1.8,1.8,0,0,0-2,1A1.8,1.8,0,0,0,410-345Z" transform="translate(-386 381)"/>
    <path class="cls-1" d="M399-346c-0.4.1-.2,1.4,0,2a2.2,2.2,0,0,0,2,1c0.4-.1.2-1.4,0-2A2.2,2.2,0,0,0,399-346Z" transform="translate(-386 381)"/>
    <path class="cls-1" d="M411-352c0.8,0,2-1.8,2-3s-0.2-2-1-2-2,1.8-2,3S410.2-352,411-352Z" transform="translate(-386 381)"/>
    <path class="cls-1" d="M419-350a2.6,2.6,0,0,0,3-1c0.6-1.1.7-2.6,0-3a2.6,2.6,0,0,0-3,1C418.4-351.9,418.3-350.4,419-350Z" transform="translate(-386 381)"/>
    <path class="cls-1" d="M487-338a20.8,20.8,0,0,0-2-5c-0.8-1.7-6-7.7-14-9-1-15.6,14-25,14-25l-1-4h-6c-12.4,5.3-21.7,18.4-23,27-7.3.3-16.6,2-25,4-24.4,5.8-43,19.2-44,29.9,0,1.5,0,2.8,0,4.4,0.5,17.5,29.4,26.2,57,19.6S489.9-317.7,487-338Zm-52,11c0.6,1,.7,2.6,0,3a1.1,1.1,0,0,1-1,0v1l-2,2-1-1v-3l1-1c-0.2-.8-0.5-1.7,0-2A2.6,2.6,0,0,1,435-327Zm-7-10h2l3,5-2,3h-1v1l-2,2-1-1v-3l1-1-2-3Zm-3,13a2.3,2.3,0,0,1-1,1l1,3-2,2-1-1v-4s0.1,0,0,0-0.6-1.9,0-3a2.6,2.6,0,0,1,3-1C425.7-326.6,425.6-325.1,425-324Zm-1-18c0.8,0,1,.8,1,2s-1.2,3-2,3-1-.8-1-2S423.2-342,424-342Zm-5,5c0.8,0,1,.8,1,2h1l1,1,1,3-2,2-1-1v-1a1.6,1.6,0,0,1-1,1c-0.8,0-1-.8-1-2s-1-.8-1-2S418.2-337,419-337Zm-1,18a2.6,2.6,0,0,1-3,1c-0.7-.4-0.6-1.9,0-3a1.7,1.7,0,0,1,1-1l-2-4,2-3h2l3,5-2,3h-1A2,2,0,0,1,418-319Zm-4-18c0.1-1.2.4-2,1-2s1.1,0.8,1,2-0.4,2-1,2S413.9-335.8,414-337Zm-7,1a0.7,0.7,0,0,1,1,0,1.5,1.5,0,0,1,1-1c0.8,0,2.4,0,3,1s1.1,0.8,1,2-0.4,2-1,2h-1c-0.6.6-2.1-.1-3-1S406.4-335.4,407-336Zm-2,12a3,3,0,0,1,2-1l-2-3,2-3h2l3,5-2,3h-2v1a1,1,0,0,1,1,0c0.7,0.4.6,1.9,0,3a2.6,2.6,0,0,1-3,1c-0.7-.4-0.5-2,0-3a2.1,2.1,0,0,1-1,0C404.3-321.4,404.4-322.9,405-324Zm-5-6c0.1-1.2.4-2,1-2s1.1,0.8,1,2-0.4,2-1,2S399.9-328.8,400-330Zm-2,5c0.8,0,1,.8,1,2a1.6,1.6,0,0,1,1,0h0c0.1-1.2.4-2,1-2a1.1,1.1,0,0,1,1-1c0.6,0,1.1.8,1,2s-0.4,2-1,2a1.6,1.6,0,0,1-1,1c0.4,0.4.3,0.9,0,1s-2-.3-2-1v-1a3.2,3.2,0,0,1-2,2c-0.8,0-1-.8-1-2S397.2-325,398-325Zm42,12c-25.2,6.7-48.6,3-51-6,5.6,7.2,26.3,8,49,2,24.8-6.6,42.8-18.7,41-28a4.3,4.3,0,0,1,1,2C482.4-334,465.2-319.7,440-313Z" transform="translate(-386 381)"/>
  </g>
</svg>
