<svg id="Layer_2" data-name="Layer 2" xmlns="http://www.w3.org/2000/svg" viewBox="0 0 108 108">
  <defs>
    <style>
      .cls-1 {
        fill: #143c4b;
      }
    </style>
  </defs>
  <title>home_icon</title>
  <g>
    <path class="cls-1" d="M891-339h-5v-15a2.8,2.8,0,0,0-3-3H847a2.8,2.8,0,0,0-3,3v9h-4v-9a2.8,2.8,0,0,0-3-3H801a2.8,2.8,0,0,0-3,3v15h-5a5,5,0,0,0-5,5v25a5,5,0,0,0,5,5v7h7v-3h2v-4h80v4h2v3h7v-7a5,5,0,0,0,5-5v-25A5,5,0,0,0,891-339Zm-51,16c-0.5,2.3-1.7,4-4,4H800c-2.3,0-5-1.7-5-4a2.4,2.4,0,0,1,1-2,3.6,3.6,0,0,0,3.6,3H836a4,4,0,0,0,4-3A8.4,8.4,0,0,1,840-323Zm49,0c-0.5,2.3-1.7,4-4,4H848c-2.3,0-3.7-1.7-4-4a7.8,7.8,0,0,1,0-2,4,4,0,0,0,4,3h37a4,4,0,0,0,4-3A7.8,7.8,0,0,1,889-323Z" transform="translate(-788 405)"/>
    <path class="cls-1" d="M795-368l47-27,47,27c1.5,0.5,4.3-.7,5-2s0.9-4.9-1-6l-51-29-51,29c-1.9,1.1-3.1,4.1-2,6S793.1-366.9,795-368Z" transform="translate(-788 405)"/>
    <path class="cls-1" d="M831-375a11,11,0,0,0,11,11,11,11,0,0,0,11-11,11,11,0,0,0-11-11A11,11,0,0,0,831-375Zm10,6.9a7.1,7.1,0,0,1-6-5.9h6v5.9Zm0-7.9h-6a7.2,7.2,0,0,1,6-6v6Zm2-6a7.2,7.2,0,0,1,6,6h-6v-6Zm0,8h6a7.2,7.2,0,0,1-6,6v-6Z" transform="translate(-788 405)"/>
  </g>
</svg>
