<svg id="Layer_2" data-name="Layer 2" xmlns="http://www.w3.org/2000/svg" viewBox="0 0 110 74">
  <defs>
    <style>
      .cls-1 {
        fill: #143c4b;
      }
    </style>
  </defs>
  <title>train_icon</title>
  <g>
    <path class="cls-1" d="M1023-382h-4a4.4,4.4,0,0,0-4,4v25h-1l-2,2-2-2h-4l-2,2-2-2h-4l-2,2-2-2h-4l-2,2-2-2h-4l-2,2-2-2h-4l-2,2-2-2h-1v-25a4.3,4.3,0,0,0-4-4h-4a4.4,4.4,0,0,0-4,4v66a4.3,4.3,0,0,0,4,4h4a4.3,4.3,0,0,0,4-4v-25h1l2-2,2,2h4l2-2,2,2h4l2-2,2,2h4l2-2,2,2h4l2-2,2,2h4l2-2,2,2h1v25a4.3,4.3,0,0,0,4,4h4a4.3,4.3,0,0,0,4-4v-66A4.4,4.4,0,0,0,1023-382Zm-8,32v2l-1-1Zm-7-1,2,2-2,2-2-2Zm-8,0,2,2-2,2-2-2Zm-8,0,2,2-2,2-2-2Zm-8,0,2,2-2,2-2-2Zm-8,0,2,2-2,2-2-2Zm-7,1,1,1-1,1v-2Zm0,10v-2l1,1Zm3-3-2-2,2-2,2,2Zm4,4-2-2,2-2,2,2Zm4-4-2-2,2-2,2,2Zm4,4-2-2,2-2,2,2Zm4-4-2-2,2-2,2,2Zm4,4-2-2,2-2,2,2Zm4-4-2-2,2-2,2,2Zm4,4-2-2,2-2,2,2Zm4-4-2-2,2-2,2,2Zm4,4-2-2,2-2,2,2Zm4-4-2-2,2-2,2,2Zm3,1v2l-1-1Z" transform="translate(-937 382)"/>
    <path class="cls-1" d="M1045-353h0v-4h-2v4h-2v-16a2.7,2.7,0,0,0-3-3h-2a2.7,2.7,0,0,0-3,3v48c0,2,1,3,3,3h2a2.7,2.7,0,0,0,3-3v-16h2v4h2v-4h0a2,2,0,0,0,2-2V-351A2,2,0,0,0,1045-353Z" transform="translate(-937 382)"/>
    <path class="cls-1" d="M948-372h-2a2.7,2.7,0,0,0-3,3v16h-2v-4h-2v4h0a2.2,2.2,0,0,0-2,2v12a2.1,2.1,0,0,0,2,2h0v4h2v-4h2v16c0,2,1,3,3,3h2c2,0,3-1,3-3v-48C951-371,950-372,948-372Z" transform="translate(-937 382)"/>
  </g>
</svg>
