<svg id="Layer_2" data-name="Layer 2" xmlns="http://www.w3.org/2000/svg" viewBox="0 0 110 94"><defs><style>.cls-1{fill:#143c4b;}</style></defs><title>burger</title><path class="cls-1" d="M1191-355h-98a6.5,6.5,0,0,0-6,6v6a6.4,6.4,0,0,0,6,6h98a6.4,6.4,0,0,0,6-6v-6A6.5,6.5,0,0,0,1191-355Z" transform="translate(-1087 393)"/><path class="cls-1" d="M1191-317h-98a6.5,6.5,0,0,0-6,6v6a6.4,6.4,0,0,0,6,6h98a6.4,6.4,0,0,0,6-6v-6A6.5,6.5,0,0,0,1191-317Z" transform="translate(-1087 393)"/><path class="cls-1" d="M1191-393h-98a6.5,6.5,0,0,0-6,6v6a6.4,6.4,0,0,0,6,6h98a6.4,6.4,0,0,0,6-6v-6A6.5,6.5,0,0,0,1191-393Z" transform="translate(-1087 393)"/></svg>