<svg id="Layer_1" data-name="Layer 1" xmlns="http://www.w3.org/2000/svg" viewBox="0 0 230 673"><defs><style>.cls-1{fill:#dc643c;}.cls-2{fill:#143c4b;}</style></defs><title>logo_v_name</title><path class="cls-1" d="M-1085,524v31h-14V533.1c0-2.1-.4-3.9-0.5-5.4a9.5,9.5,0,0,0-1-3.6,4.4,4.4,0,0,0-2.2-2,10.1,10.1,0,0,0-4-.6,9.7,9.7,0,0,0-3.9.8,26.7,26.7,0,0,0-3.4,1.7v31h-14V512h14v4.2a27.8,27.8,0,0,1,6.8-4.4,16.3,16.3,0,0,1,7.2-1.6,14.6,14.6,0,0,1,7.5,1.9,13,13,0,0,1,5.1,5.6,43,43,0,0,1,8.1-5.5,16.8,16.8,0,0,1,7.7-2c4.7,0,7.9,1.4,10.3,4.2s3.3,6.8,3.3,12.1V555h-14V533.1c0-2.1.3-3.9,0.2-5.4a9.6,9.6,0,0,0-.7-3.6,3.9,3.9,0,0,0-2-2,9.9,9.9,0,0,0-4-.6,7.8,7.8,0,0,0-3,.6A11.3,11.3,0,0,0-1085,524Z" transform="translate(1128 26)"/><path class="cls-1" d="M-1020,550.1a31.6,31.6,0,0,0-2.7,2,20,20,0,0,1-3.1,1.9,19.6,19.6,0,0,1-4.2,1.4,24.2,24.2,0,0,1-4.8.4,14.7,14.7,0,0,1-10.3-3.8,12.6,12.6,0,0,1-4.2-9.7,13.1,13.1,0,0,1,2.1-7.7,14.2,14.2,0,0,1,6-4.7,33.3,33.3,0,0,1,9.4-2.5c3.8-.5,8.7-0.8,11.7-1.1V526c0-2.4-.9-4-2.8-4.9s-4.8-1.4-8.6-1.4a24.7,24.7,0,0,0-7.3,1.3c-2.6.8-4.4,1-5.6,2h-1.8V512.4l7.4-1.4a64.5,64.5,0,0,1,10-.8c7.9,0,13.7,1.2,17.2,3.6s5.4,6.2,5.4,11.4V555h-14v-4.9Zm0-6.7v-9l-6,.6a29,29,0,0,0-4.9.9,6.8,6.8,0,0,0-3.2,1.9,4.8,4.8,0,0,0-1.1,3.3,8.5,8.5,0,0,0,.2,2.2,3.3,3.3,0,0,0,1.2,1.6,5.6,5.6,0,0,0,2.1,1.1,14.7,14.7,0,0,0,3.8.4,11.1,11.1,0,0,0,4.2-.8A11.9,11.9,0,0,0-1020,543.4Z" transform="translate(1128 26)"/><path class="cls-1" d="M-953,555h-12v-4.8a57.2,57.2,0,0,1-7.3,4.3,19,19,0,0,1-7.5,1.4,15.4,15.4,0,0,1-12.7-6.1c-3.1-4.1-4.8-9.5-4.8-16.4a27.7,27.7,0,0,1,1.6-9.7,22.3,22.3,0,0,1,4.3-7.3,17.9,17.9,0,0,1,6.3-4.5,18.8,18.8,0,0,1,7.4-1.6,24.8,24.8,0,0,1,7,.8c1.7,0.6,2.7,1.3,5.7,2.1V494h12v61Zm-12-12.2V521.5a17.9,17.9,0,0,1-3.7-.9l-3.3-.3c-3.6,0-6.5,1.1-8.3,3.4s-2.8,5.4-2.8,9.5,0.7,7.3,2.1,9.2,3.8,2.9,7,2.9a16.1,16.1,0,0,0,4.6-.7C-967.9,544.2-968,543.5-965,542.8Z" transform="translate(1128 26)"/><path class="cls-1" d="M-898,535h-31.9c0.2,5,1.5,6.3,3.9,8.1s5.9,2.8,10.5,2.8a23.5,23.5,0,0,0,8.5-1.6,36.5,36.5,0,0,0,6.5-3.4h1.6v11.2c-2,1.3-6.1,2.2-8.9,2.7a46.3,46.3,0,0,1-9.2.8q-13,0-19.9-5.8t-6.9-16.7q0-10.7,6.6-16.9t18-6.2c7,0,12.4,1.8,16,5.3s5.4,8.7,5.4,15.3V535Zm-14-7c-0.1-3-.8-5.3-2.2-6.8s-3.5-2.3-6.3-2.3a10.3,10.3,0,0,0-6.6,2.3c-1.7,1.4-2.7,3.8-2.9,6.8h18Z" transform="translate(1128 26)"/><path class="cls-2" d="M-1089,609h-31.7c0,4,.4,5.2,1.2,7.2a13.5,13.5,0,0,0,3.3,5,13.2,13.2,0,0,0,4.8,2.8,18.9,18.9,0,0,0,6.1,1,23.8,23.8,0,0,0,8.8-1.6,25.8,25.8,0,0,0,6.3-3.3h0.2v7.7a41.6,41.6,0,0,1-7.4,2.6,30,30,0,0,1-8,1q-10.7,0-16.7-5.8t-6-16.4q0-10.5,5.8-16.7t15.1-6.2q8.7,0,13.4,5.1t4.7,14.4V609Zm-7-5c0-4-1-6.7-2.9-8.8s-4.8-3.1-8.6-3.1-7,1.1-9.3,3.4a14.2,14.2,0,0,0-3.9,8.5h24.6Z" transform="translate(1128 26)"/><path class="cls-2" d="M-1044,630h-7v-4.3a16.8,16.8,0,0,0-3,1.8,19.9,19.9,0,0,1-3.4,1.9,22.5,22.5,0,0,1-4.3,1.5,22.9,22.9,0,0,1-5.6.6,13.8,13.8,0,0,1-9.9-3.8,13,13,0,0,1-4.1-9.8,13.6,13.6,0,0,1,2.1-7.9,14,14,0,0,1,6-4.8,35.4,35.4,0,0,1,9.8-2.3c3.7-.4,7.2-0.7,12.2-0.9v-1.1a8.5,8.5,0,0,0-1.3-4.1,6.8,6.8,0,0,0-2.7-2.5,10.9,10.9,0,0,0-3.8-1.2,32.7,32.7,0,0,0-4.6-.3,32.1,32.1,0,0,0-6.4.9c-2.3.5-4.8,0.4-7.3,2.4h0v-7.7a43.5,43.5,0,0,1,5.9-1.3,45.2,45.2,0,0,1,7.8-.7,36.3,36.3,0,0,1,7.9.8,15.3,15.3,0,0,1,5.8,2.6,12.1,12.1,0,0,1,4,4.6,16.7,16.7,0,0,1,1.6,7V630Zm-7-10.3v-12l-8.2.6a43.3,43.3,0,0,0-7.3,1.1,12.1,12.1,0,0,0-5.1,2.7,6.9,6.9,0,0,0-2,5.1,6.8,6.8,0,0,0,2.2,5.6c1.5,1.2,3.7,1.9,6.8,1.9a18.1,18.1,0,0,0,7.4-1.5C-1055.2,622.3-1054,621.1-1051,619.7Z" transform="translate(1128 26)"/><path class="cls-2" d="M-1000,617.9a11.7,11.7,0,0,1-4.9,9.7q-4.9,3.8-13.3,3.8a33.3,33.3,0,0,1-8.9-1.1,49.9,49.9,0,0,1-6.9-2.5V620h0.8c2.3,2,4.8,2.9,7.6,3.9a23.3,23.3,0,0,0,8,1.4,15.1,15.1,0,0,0,7.5-1.6,5.2,5.2,0,0,0,2.7-4.9,4.9,4.9,0,0,0-1.5-3.9c-1-.9-2.8-1.6-5.6-2.2l-4-.8-4.5-1q-5.7-1.5-8-4.4a10.9,10.9,0,0,1-2.4-7.1,11.7,11.7,0,0,1,1.1-5,12.1,12.1,0,0,1,3.3-4.2,15.9,15.9,0,0,1,5.5-2.9,24.5,24.5,0,0,1,7.4-1.1,36.6,36.6,0,0,1,8.2.9c2.6,0.6,3.9,1.4,6.9,2.3V597h-1.1c-1.8,0-4.1-2.4-6.7-3.3a23.1,23.1,0,0,0-7.8-1.3,13.6,13.6,0,0,0-6.7,1.6,4.9,4.9,0,0,0-2.7,4.5,4.9,4.9,0,0,0,1.7,4,12.9,12.9,0,0,0,5.2,2.2l4.5,0.9,4.1,0.8a15.3,15.3,0,0,1,7.8,4A10.4,10.4,0,0,1-1000,617.9Z" transform="translate(1128 26)"/><path class="cls-2" d="M-952.5,587l-25.1,60h-7.7l8-18.5L-994.5,587h7.8l13.2,31.8,13.3-31.8h7.6Z" transform="translate(1128 26)"/><path class="cls-2" d="M-898,258.9A24.9,24.9,0,0,0-922.9,234h-180.2a24.9,24.9,0,0,0-24.9,24.9V439.1a24.9,24.9,0,0,0,24.9,24.9h180.2A24.9,24.9,0,0,0-898,439.1V258.9Zm-145-8.9h65v24h-65V250Zm-8,198h-51.3c-4.9,0-9.7-5.6-9.7-10.4V297h47V424h14v24Zm0-174h-14v14h-47V257.5c0-4.9,4.9-7.5,9.7-7.5h51.3v24Zm73,174h-65V424h65v24Zm64-10.4c0,4.9-1.9,10.4-6.7,10.4H-970V424h13V410h43v27.6Zm0-36.6h-43V391h-76V361h71V334h-71V305h71V274h-8V250h49.3c4.9,0,6.7,2.6,6.7,7.5V401Z" transform="translate(1128 26)"/><path class="cls-1" d="M-898-1.1A24.9,24.9,0,0,0-922.9-26h-180.2A24.9,24.9,0,0,0-1128-1.1V179.1a24.9,24.9,0,0,0,24.9,24.9h180.2A24.9,24.9,0,0,0-898,179.1V-1.1ZM-961-10V14h-8.9l-42.8,52.7L-1055.5,14h-9.5V-10h104Zm-151,7.5c0-4.9,4-7.5,8.9-7.5h29.1V14h-14V37h-24V-2.5Zm8.9,190.5c-4.9,0-8.9-5.6-8.9-10.4V45h24V164h14v24h-29.1Zm38.1,0V164h10V69.4l39,44.6h6.6L-971,69.4V164h10v24h-104Zm151-10.4c0,4.9-2.7,10.4-7.5,10.4H-952V164h14V141h24v36.6Zm0-44.6h-24V14h-14V-10h30.5c4.9,0,7.5,2.6,7.5,7.5V133Z" transform="translate(1128 26)"/></svg>