<svg id="Layer_1" data-name="Layer 1" xmlns="http://www.w3.org/2000/svg" viewBox="0 0 490 230"><defs><style>.cls-1{fill:#464646;}.cls-2{fill:#8c8c8c;}</style></defs><title>logo_hb</title><path class="cls-1" d="M-1580,403.9a24.9,24.9,0,0,0-24.9-24.9h-180.2a24.9,24.9,0,0,0-24.9,24.9V584.1a24.9,24.9,0,0,0,24.9,24.9h180.2a24.9,24.9,0,0,0,24.9-24.9V403.9Zm-145-8.9h65v24h-65V395Zm-8,198h-51.3c-4.9,0-9.7-5.6-9.7-10.4V442h47V569h14v24Zm0-174h-14v14h-47V402.5c0-4.9,4.9-7.5,9.7-7.5h51.3v24Zm73,174h-65V569h65v24Zm64-10.4c0,4.9-1.9,10.4-6.7,10.4H-1652V569h13V555h43v27.6Zm0-36.6h-43V536h-76V506h71V479h-71V450h71V419h-8V395h49.3c4.9,0,6.7,2.6,6.7,7.5V546Z" transform="translate(2070 -379)"/><path class="cls-2" d="M-1840,403.9a24.9,24.9,0,0,0-24.9-24.9h-180.2a24.9,24.9,0,0,0-24.9,24.9V584.1a24.9,24.9,0,0,0,24.9,24.9h180.2a24.9,24.9,0,0,0,24.9-24.9V403.9Zm-63-8.9v24h-8.9l-42.8,52.7-42.8-52.7h-9.5V395h104Zm-151,7.5c0-4.9,4-7.5,8.9-7.5h29.1v24h-14v23h-24V402.5Zm8.9,190.5c-4.9,0-8.9-5.6-8.9-10.4V450h24V569h14v24h-29.1Zm38.1,0V569h10V474.4l39,44.6h6.6l38.4-44.6V569h10v24h-104Zm151-10.4c0,4.9-2.7,10.4-7.5,10.4H-1894V569h14V546h24v36.6Zm0-44.6h-24V419h-14V395h30.5c4.9,0,7.5,2.6,7.5,7.5V538Z" transform="translate(2070 -379)"/></svg>