<svg id="Layer_1" data-name="Layer 1" xmlns="http://www.w3.org/2000/svg" viewBox="0 0 230 490"><defs><style>.cls-1{fill:#143c4b;}.cls-2{fill:#dc643c;}</style></defs><title>logo_v</title><path class="cls-1" d="M-898,258.9A24.9,24.9,0,0,0-922.9,234h-180.2a24.9,24.9,0,0,0-24.9,24.9V439.1a24.9,24.9,0,0,0,24.9,24.9h180.2A24.9,24.9,0,0,0-898,439.1V258.9Zm-145-8.9h65v24h-65V250Zm-8,198h-51.3c-4.9,0-9.7-5.6-9.7-10.4V297h47V424h14v24Zm0-174h-14v14h-47V257.5c0-4.9,4.9-7.5,9.7-7.5h51.3v24Zm73,174h-65V424h65v24Zm64-10.4c0,4.9-1.9,10.4-6.7,10.4H-970V424h13V410h43v27.6Zm0-36.6h-43V391h-76V361h71V334h-71V305h71V274h-8V250h49.3c4.9,0,6.7,2.6,6.7,7.5V401Z" transform="translate(1128 26)"/><path class="cls-2" d="M-898-1.1A24.9,24.9,0,0,0-922.9-26h-180.2A24.9,24.9,0,0,0-1128-1.1V179.1a24.9,24.9,0,0,0,24.9,24.9h180.2A24.9,24.9,0,0,0-898,179.1V-1.1ZM-961-10V14h-8.9l-42.8,52.7L-1055.5,14h-9.5V-10h104Zm-151,7.5c0-4.9,4-7.5,8.9-7.5h29.1V14h-14V37h-24V-2.5Zm8.9,190.5c-4.9,0-8.9-5.6-8.9-10.4V45h24V164h14v24h-29.1Zm38.1,0V164h10V69.4l39,44.6h6.6L-971,69.4V164h10v24h-104Zm151-10.4c0,4.9-2.7,10.4-7.5,10.4H-952V164h14V141h24v36.6Zm0-44.6h-24V14h-14V-10h30.5c4.9,0,7.5,2.6,7.5,7.5V133Z" transform="translate(1128 26)"/></svg>