<svg id="Layer_1" data-name="Layer 1" xmlns="http://www.w3.org/2000/svg" viewBox="0 0 828 230"><defs><style>.cls-1{fill:#143c4b;}.cls-2{fill:#dc643c;}</style></defs><title>logo_topbar</title><path class="cls-1" d="M562,205.9A24.9,24.9,0,0,0,537.1,181H356.9A24.9,24.9,0,0,0,332,205.9V386.1A24.9,24.9,0,0,0,356.9,411H537.1A24.9,24.9,0,0,0,562,386.1V205.9ZM417,197h65v24H417V197Zm-8,198H357.7c-4.9,0-9.7-5.6-9.7-10.4V244h47V371h14v24Zm0-174H395v14H348V204.5c0-4.9,4.9-7.5,9.7-7.5H409v24Zm73,174H417V371h65v24Zm64-10.4c0,4.9-1.9,10.4-6.7,10.4H490V371h13V357h43v27.6Zm0-36.6H503V338H427V308h71V281H427V252h71V221h-8V197h49.3c4.9,0,6.7,2.6,6.7,7.5V348Z" transform="translate(-72 -181)"/><path class="cls-2" d="M302,205.9A24.9,24.9,0,0,0,277.1,181H96.9A24.9,24.9,0,0,0,72,205.9V386.1A24.9,24.9,0,0,0,96.9,411H277.1A24.9,24.9,0,0,0,302,386.1V205.9ZM239,197v24h-8.9l-42.8,52.7L144.5,221H135V197H239ZM88,204.5c0-4.9,4-7.5,8.9-7.5H126v24H112v23H88V204.5ZM96.9,395c-4.9,0-8.9-5.6-8.9-10.4V252h24V371h14v24H96.9Zm38.1,0V371h10V276.4L184,321h6.6L229,276.4V371h10v24H135Zm151-10.4c0,4.9-2.7,10.4-7.5,10.4H248V371h14V348h24v36.6Zm0-44.6H262V221H248V197h30.5c4.9,0,7.5,2.6,7.5,7.5V340Z" transform="translate(-72 -181)"/><path class="cls-2" d="M657,235.2V275H639V246.9c0-2.7-.2-5-0.3-7a12.4,12.4,0,0,0-1.2-4.7,5.6,5.6,0,0,0-2.7-2.6,14.4,14.4,0,0,0-10.3.2,22.7,22.7,0,0,0-4.5,2.3V275H602V219h18v6.1a46.4,46.4,0,0,1,8.9-5.7,21.2,21.2,0,0,1,9.4-2,19,19,0,0,1,9.8,2.5,16.8,16.8,0,0,1,6.6,7.3,55.8,55.8,0,0,1,10.4-7.1,21.8,21.8,0,0,1,10-2.6c6,0,10.4,1.8,13.5,5.4s4.5,8.8,4.5,15.6V275H675V246.9c0-2.8.2-5.1,0.1-7a12.2,12.2,0,0,0-1-4.6,5.1,5.1,0,0,0-2.6-2.6,12.9,12.9,0,0,0-5.2-.8,12,12,0,0,0-4.2.8A30.7,30.7,0,0,0,657,235.2Z" transform="translate(-72 -181)"/><path class="cls-2" d="M742,268.9l-3.6,2.6a26.1,26.1,0,0,1-4,2.4,25.4,25.4,0,0,1-5.5,1.8,31.4,31.4,0,0,1-6.2.6,19,19,0,0,1-13.4-4.9,16.3,16.3,0,0,1-5.4-12.6,17,17,0,0,1,2.7-10,18.4,18.4,0,0,1,7.8-6.1,43.3,43.3,0,0,1,12.3-3.2c4.9-.6,10.2-1.1,15.2-1.4v-0.3c0-3.1-1.2-5.2-3.7-6.4s-6.2-1.8-11.1-1.8a32.4,32.4,0,0,0-9.4,1.8c-3.4,1-5.7,1.6-7.2,2.6H709V220.1c2-.5,4.9-1.1,9.2-1.8a81.2,81.2,0,0,1,12.8-1c10.2,0,17.6,1.6,22.2,4.7s6.9,8.1,6.9,14.8V275H742v-6.1Zm0-8.7V248.6l-7.8.8a37.8,37.8,0,0,0-6.4,1.2,8.8,8.8,0,0,0-4.1,2.5,6.2,6.2,0,0,0-1.4,4.2,11,11,0,0,0,.3,2.8,4.2,4.2,0,0,0,1.5,2.1,7.3,7.3,0,0,0,2.7,1.5,19.1,19.1,0,0,0,5,.5,14.6,14.6,0,0,0,5.4-1.1A12.8,12.8,0,0,0,742,260.2Z" transform="translate(-72 -181)"/><path class="cls-2" d="M830,275H812v-6a38,38,0,0,1-8.8,5.6,23.1,23.1,0,0,1-9.4,1.8,19.7,19.7,0,0,1-16.4-7.9c-4.1-5.3-6.1-12.3-6.1-21.2a35.8,35.8,0,0,1,2.1-12.6,28.9,28.9,0,0,1,5.6-9.4,23.2,23.2,0,0,1,8.2-5.8,24.3,24.3,0,0,1,9.7-2.1,27.8,27.8,0,0,1,8.4,1.1c2.1,0.7,3.8,1.6,6.8,2.7V197h18v78Zm-18-15.6V231.9c-2-.5-2.8-0.9-4.2-1.1a24.6,24.6,0,0,0-3.9-.3c-4.7,0-8.3,1.5-10.6,4.4s-3.6,7-3.6,12.3,0.9,9.5,2.8,12,4.9,3.7,9.1,3.7a17.2,17.2,0,0,0,5.3-.9A38.5,38.5,0,0,0,812,259.4Z" transform="translate(-72 -181)"/><path class="cls-2" d="M900,250H858.6c0.3,5,1.9,7.8,5,10.2s7.6,3.5,13.6,3.5a30.7,30.7,0,0,0,11-2.2c3.6-1.4,6.4-2.5,8.4-4.5H899v14.7a66.5,66.5,0,0,1-11.6,3.5,60.7,60.7,0,0,1-12,1.1c-11.2,0-19.9-2.5-25.9-7.6s-9-12.2-9-21.6,2.8-16.6,8.5-22,13.4-8.1,23.3-8.1,16.1,2.3,20.7,6.9,7,11.2,7,19.9V250Zm-18.1-10c-0.1-4-1-6.8-2.8-8.6s-4.5-2.9-8.2-2.9a13.2,13.2,0,0,0-8.5,2.8c-2.2,1.8-3.5,4.8-3.7,8.8h23.3Z" transform="translate(-72 -181)"/><path class="cls-1" d="M652.5,347.3h-41a23.7,23.7,0,0,0,1.5,8.9,16.5,16.5,0,0,0,10.4,9.8,24.5,24.5,0,0,0,7.8,1.2,31,31,0,0,0,11.4-2.3,28.2,28.2,0,0,0,8.2-4.5h0.5v10.2a77.8,77.8,0,0,1-9.7,3.3,39.3,39.3,0,0,1-10.4,1.3q-13.9,0-21.6-7.5T602,346.6q0-13.7,7.5-21.7t19.6-8q11.3,0,17.4,6.6t6.1,18.7v5.1Zm-9.1-7.2q0-7.4-3.7-11.4t-11.1-4q-7.5,0-12,4.4a17.2,17.2,0,0,0-5.1,11h31.9Z" transform="translate(-72 -181)"/><path class="cls-1" d="M710,374h-9v-5.8c-1,.6-2.1,1.4-3.5,2.4a24.5,24.5,0,0,1-4.2,2.4,28.1,28.1,0,0,1-5.4,1.9,29.3,29.3,0,0,1-7.1.8,17.8,17.8,0,0,1-12.8-5,16.8,16.8,0,0,1-5.2-12.7q0-6.3,2.7-10.2a18.2,18.2,0,0,1,7.7-6.2,43,43,0,0,1,12.4-3c4.8-.5,9.5-0.9,15.5-1.2v-1.4a11,11,0,0,0-1.3-5.3,8.4,8.4,0,0,0-3.3-3.3,13.5,13.5,0,0,0-4.8-1.5,41.7,41.7,0,0,0-5.9-.4,39.1,39.1,0,0,0-8.2.9c-3,.6-6.2,1.7-9.4,2.7H668v-9.3c1-.5,4.3-1,7.7-1.6a58.8,58.8,0,0,1,10.1-.9,47.1,47.1,0,0,1,10.2,1,19.8,19.8,0,0,1,7.5,3.3,14.7,14.7,0,0,1,4.8,5.9,21.9,21.9,0,0,1,1.6,9V374Zm-9-13.6V344.9l-10.3.7a53.3,53.3,0,0,0-9.3,1.4,15.3,15.3,0,0,0-6.6,3.6,8.8,8.8,0,0,0-2.5,6.7c0,3.2,1,5.6,2.9,7.2s4.9,2.4,8.8,2.4a21.7,21.7,0,0,0,9.2-1.9A89,89,0,0,0,701,360.4Z" transform="translate(-72 -181)"/><path class="cls-1" d="M767.8,358.1a15.2,15.2,0,0,1-6.3,12.5q-6.3,4.9-17.2,4.9a42.3,42.3,0,0,1-11.5-1.5,90.5,90.5,0,0,1-8.8-3.2V360h0.8c3,3,6.2,4.1,9.9,5.4a30.7,30.7,0,0,0,10.4,2c4.1,0,7.3-.6,9.7-2a6.7,6.7,0,0,0,3.5-6.3,6.3,6.3,0,0,0-1.9-5q-1.9-1.7-7.3-2.9l-5.2-1-5.9-1.3q-7.3-1.9-10.4-5.7a14.2,14.2,0,0,1-3.1-9.2,15.1,15.1,0,0,1,1.4-6.5,15.6,15.6,0,0,1,4.3-5.4,20.7,20.7,0,0,1,7.1-3.7,31.8,31.8,0,0,1,9.6-1.4,45,45,0,0,1,10.3,1.2,61.4,61.4,0,0,1,8.7,3V331h-0.9c-2.4-1-5.3-3.1-8.7-4.3a29.9,29.9,0,0,0-10.1-1.7,17.6,17.6,0,0,0-8.7,2,6.9,6.9,0,0,0-1.4,11.1,16.7,16.7,0,0,0,6.8,2.8l5.8,1.2,5.4,1.1q6.5,1.5,10.1,5.1A13.5,13.5,0,0,1,767.8,358.1Z" transform="translate(-72 -181)"/><path class="cls-1" d="M829.3,318l-32.5,77h-10l10.4-23.6L775,318h10.2l17.1,41.3L819.5,318h9.8Z" transform="translate(-72 -181)"/></svg>