<svg id="Layer_1" data-name="Layer 1" xmlns="http://www.w3.org/2000/svg" viewBox="0 0 230 490"><defs><style>.cls-1{fill:#464646;}.cls-2{fill:#8c8c8c;}</style></defs><title>logo_vb</title><path class="cls-1" d="M-505,343.9A24.9,24.9,0,0,0-529.9,319H-710.1A24.9,24.9,0,0,0-735,343.9V524.1A24.9,24.9,0,0,0-710.1,549h180.2A24.9,24.9,0,0,0-505,524.1V343.9ZM-650,335h65v24h-65V335Zm-8,198h-51.3c-4.9,0-9.7-5.6-9.7-10.4V382h47V509h14v24Zm0-174h-14v14h-47V342.5c0-4.9,4.9-7.5,9.7-7.5H-658v24Zm73,174h-65V509h65v24Zm64-10.4c0,4.9-1.9,10.4-6.7,10.4H-577V509h13V495h43v27.6Zm0-36.6h-43V476h-76V446h71V419h-71V390h71V359h-8V335h49.3c4.9,0,6.7,2.6,6.7,7.5V486Z" transform="translate(735 -59)"/><path class="cls-2" d="M-505,83.9A24.9,24.9,0,0,0-529.9,59H-710.1A24.9,24.9,0,0,0-735,83.9V264.1A24.9,24.9,0,0,0-710.1,289h180.2A24.9,24.9,0,0,0-505,264.1V83.9ZM-568,75V99h-8.9l-42.8,52.7L-662.5,99H-672V75h104Zm-151,7.5c0-4.9,4-7.5,8.9-7.5H-681V99h-14v23h-24V82.5Zm8.9,190.5c-4.9,0-8.9-5.6-8.9-10.4V130h24V249h14v24h-29.1Zm38.1,0V249h10V154.4l39,44.6h6.6l38.4-44.6V249h10v24H-672Zm151-10.4c0,4.9-2.7,10.4-7.5,10.4H-559V249h14V226h24v36.6Zm0-44.6h-24V99h-14V75h30.5c4.9,0,7.5,2.6,7.5,7.5V218Z" transform="translate(735 -59)"/></svg>