<svg id="Layer_1" data-name="Layer 1" xmlns="http://www.w3.org/2000/svg" viewBox="0 0 828 230"><defs><style>.cls-1{fill:#464646;}.cls-2{fill:#8c8c8c;}</style></defs><title>logo_hb_name</title><path class="cls-1" d="M-1580,403.9a24.9,24.9,0,0,0-24.9-24.9h-180.2a24.9,24.9,0,0,0-24.9,24.9V584.1a24.9,24.9,0,0,0,24.9,24.9h180.2a24.9,24.9,0,0,0,24.9-24.9V403.9Zm-145-8.9h65v24h-65V395Zm-8,198h-51.3c-4.9,0-9.7-5.6-9.7-10.4V442h47V569h14v24Zm0-174h-14v14h-47V402.5c0-4.9,4.9-7.5,9.7-7.5h51.3v24Zm73,174h-65V569h65v24Zm64-10.4c0,4.9-1.9,10.4-6.7,10.4H-1652V569h13V555h43v27.6Zm0-36.6h-43V536h-76V506h71V479h-71V450h71V419h-8V395h49.3c4.9,0,6.7,2.6,6.7,7.5V546Z" transform="translate(2070 -379)"/><path class="cls-2" d="M-1840,403.9a24.9,24.9,0,0,0-24.9-24.9h-180.2a24.9,24.9,0,0,0-24.9,24.9V584.1a24.9,24.9,0,0,0,24.9,24.9h180.2a24.9,24.9,0,0,0,24.9-24.9V403.9Zm-63-8.9v24h-8.9l-42.8,52.7-42.8-52.7h-9.5V395h104Zm-151,7.5c0-4.9,4-7.5,8.9-7.5h29.1v24h-14v23h-24V402.5Zm8.9,190.5c-4.9,0-8.9-5.6-8.9-10.4V450h24V569h14v24h-29.1Zm38.1,0V569h10V474.4l39,44.6h6.6l38.4-44.6V569h10v24h-104Zm151-10.4c0,4.9-2.7,10.4-7.5,10.4H-1894V569h14V546h24v36.6Zm0-44.6h-24V419h-14V395h30.5c4.9,0,7.5,2.6,7.5,7.5V538Z" transform="translate(2070 -379)"/><path class="cls-2" d="M-1485,433.2V473h-18V444.9c0-2.7-.2-5-0.3-7a12.4,12.4,0,0,0-1.2-4.7,5.6,5.6,0,0,0-2.7-2.6,12.8,12.8,0,0,0-5.1-.8,12.9,12.9,0,0,0-5.1,1.1,22.7,22.7,0,0,0-4.5,2.3V473h-18V417h18v6.1a46.4,46.4,0,0,1,8.9-5.7,21.2,21.2,0,0,1,9.4-2,19,19,0,0,1,9.8,2.5,16.8,16.8,0,0,1,6.6,7.3,55.8,55.8,0,0,1,10.4-7.1,21.8,21.8,0,0,1,10-2.6c6,0,10.4,1.8,13.5,5.4s4.5,8.8,4.5,15.6V473h-18V444.9c0-2.8.2-5.1,0.1-7a12.2,12.2,0,0,0-1-4.6,5.1,5.1,0,0,0-2.6-2.6,12.9,12.9,0,0,0-5.2-.8,12,12,0,0,0-4.2.8A30.7,30.7,0,0,0-1485,433.2Z" transform="translate(2070 -379)"/><path class="cls-2" d="M-1400,466.9l-3.6,2.6a26.1,26.1,0,0,1-4,2.4,25.4,25.4,0,0,1-5.5,1.8,31.4,31.4,0,0,1-6.2.6,19,19,0,0,1-13.4-4.9,16.3,16.3,0,0,1-5.4-12.6,17,17,0,0,1,2.7-10,18.4,18.4,0,0,1,7.8-6.1,43.3,43.3,0,0,1,12.3-3.2c4.9-.6,10.2-1.1,15.2-1.4v-0.3c0-3.1-1.2-5.2-3.7-6.4s-6.2-1.8-11.1-1.8a32.4,32.4,0,0,0-9.4,1.8c-3.4,1-5.7,1.6-7.2,2.6h-1.5V418.1c2-.5,4.9-1.1,9.2-1.8a81.2,81.2,0,0,1,12.8-1c10.2,0,17.6,1.6,22.2,4.7s6.9,8.1,6.9,14.8V473h-18v-6.1Zm0-8.7V446.6l-7.8.8a37.8,37.8,0,0,0-6.4,1.2,8.8,8.8,0,0,0-4.1,2.5,6.2,6.2,0,0,0-1.4,4.2,11,11,0,0,0,.3,2.8,4.2,4.2,0,0,0,1.5,2.1,7.3,7.3,0,0,0,2.7,1.5,19.1,19.1,0,0,0,5,.5,14.6,14.6,0,0,0,5.4-1.1A12.8,12.8,0,0,0-1400,458.2Z" transform="translate(2070 -379)"/><path class="cls-2" d="M-1312,473h-18v-6a38,38,0,0,1-8.8,5.6,23.1,23.1,0,0,1-9.4,1.8,19.7,19.7,0,0,1-16.4-7.9c-4.1-5.3-6.1-12.3-6.1-21.2a35.8,35.8,0,0,1,2.1-12.6,28.9,28.9,0,0,1,5.6-9.4,23.2,23.2,0,0,1,8.2-5.8,24.3,24.3,0,0,1,9.7-2.1,27.8,27.8,0,0,1,8.4,1.1c2.1,0.7,3.8,1.6,6.8,2.7V395h18v78Zm-18-15.6V429.9c-2-.5-2.8-0.9-4.2-1.1a24.6,24.6,0,0,0-3.9-.3c-4.7,0-8.3,1.5-10.6,4.4s-3.6,7-3.6,12.3,0.9,9.5,2.8,12,4.9,3.7,9.1,3.7a17.2,17.2,0,0,0,5.3-.9A38.5,38.5,0,0,0-1330,457.4Z" transform="translate(2070 -379)"/><path class="cls-2" d="M-1242,448h-41.4c0.3,5,1.9,7.8,5,10.2s7.6,3.5,13.6,3.5a30.7,30.7,0,0,0,11-2.2c3.6-1.4,6.4-2.5,8.4-4.5h2.3v14.7a66.5,66.5,0,0,1-11.6,3.5,60.7,60.7,0,0,1-12,1.1c-11.2,0-19.9-2.5-25.9-7.6s-9-12.2-9-21.6,2.8-16.6,8.5-22,13.4-8.1,23.3-8.1,16.1,2.3,20.7,6.9,7,11.2,7,19.9V448Zm-18.1-10c-0.1-4-1-6.8-2.8-8.6s-4.5-2.9-8.2-2.9a13.2,13.2,0,0,0-8.5,2.8c-2.2,1.8-3.5,4.8-3.7,8.8h23.3Z" transform="translate(2070 -379)"/><path class="cls-1" d="M-1489,545h-41.5a22.4,22.4,0,0,0,1.5,9.1,17.1,17.1,0,0,0,4.2,6.3,17,17,0,0,0,6.2,3.6,24.5,24.5,0,0,0,7.8,1.2,30.6,30.6,0,0,0,11.4-2,49.7,49.7,0,0,0,8.2-4.2h0.1v9.7a66.8,66.8,0,0,1-9.5,3.3,38.4,38.4,0,0,1-10.3,1.3c-9.2,0-16.4-2.5-21.6-7.5s-7.7-12.1-7.7-21.3,2.5-16.3,7.5-21.7,11.5-8,19.6-8,13.5,2.2,17.6,6.6,6.3,10.6,6.3,18.7V545Zm-9.6-7c0-5-1.3-8.7-3.7-11.4s-6.2-4-11.1-4-9,1.4-12,4.4a18.1,18.1,0,0,0-5.1,11h31.9Z" transform="translate(2070 -379)"/><path class="cls-1" d="M-1432,572h-9v-5.8c-1,.6-2.1,1.4-3.5,2.4a24.5,24.5,0,0,1-4.2,2.4,28.1,28.1,0,0,1-5.4,1.9,29.3,29.3,0,0,1-7.1.8,17.8,17.8,0,0,1-12.8-5,16.8,16.8,0,0,1-5.2-12.7q0-6.3,2.7-10.2a18.2,18.2,0,0,1,7.7-6.2,43,43,0,0,1,12.4-3c4.8-.5,9.5-0.9,15.5-1.2v-1.4a11,11,0,0,0-1.3-5.3,8.4,8.4,0,0,0-3.3-3.3,13.5,13.5,0,0,0-4.8-1.5,41.7,41.7,0,0,0-5.9-.4,39.1,39.1,0,0,0-8.2.9c-3,.6-6.2,1.7-9.4,2.7h-0.1v-9.3c1-.5,4.3-1,7.7-1.6a58.8,58.8,0,0,1,10.1-.9,47.1,47.1,0,0,1,10.2,1,19.8,19.8,0,0,1,7.5,3.3,14.7,14.7,0,0,1,4.8,5.9,21.9,21.9,0,0,1,1.6,9V572Zm-9-13.6V542.9l-10.3.7a53.3,53.3,0,0,0-9.3,1.4,15.3,15.3,0,0,0-6.6,3.6,8.8,8.8,0,0,0-2.5,6.7c0,3.2,1,5.6,2.9,7.2s4.9,2.4,8.8,2.4a21.7,21.7,0,0,0,9.2-1.9A89,89,0,0,0-1441,558.4Z" transform="translate(2070 -379)"/><path class="cls-1" d="M-1374.2,556.1a15.2,15.2,0,0,1-6.3,12.5q-6.3,4.9-17.2,4.9a42.3,42.3,0,0,1-11.5-1.5,90.5,90.5,0,0,1-8.8-3.2V558h0.8c3,3,6.2,4.1,9.9,5.4a30.7,30.7,0,0,0,10.4,2c4.1,0,7.3-.6,9.7-2a6.7,6.7,0,0,0,3.5-6.3,6.3,6.3,0,0,0-1.9-5q-1.9-1.7-7.3-2.9l-5.2-1-5.9-1.3q-7.3-1.9-10.4-5.7a14.2,14.2,0,0,1-3.1-9.2,15.1,15.1,0,0,1,1.4-6.5,15.6,15.6,0,0,1,4.3-5.4,20.7,20.7,0,0,1,7.1-3.7,31.8,31.8,0,0,1,9.6-1.4,45,45,0,0,1,10.3,1.2,61.4,61.4,0,0,1,8.7,3V529h-0.9c-2.4-1-5.3-3.1-8.7-4.3a29.9,29.9,0,0,0-10.1-1.7,17.6,17.6,0,0,0-8.7,2,6.4,6.4,0,0,0-3.5,5.9,6.3,6.3,0,0,0,2.1,5.2,16.7,16.7,0,0,0,6.8,2.8l5.8,1.2,5.4,1.1q6.5,1.5,10.1,5.1A13.5,13.5,0,0,1-1374.2,556.1Z" transform="translate(2070 -379)"/><path class="cls-1" d="M-1312.7,516l-32.5,77h-10l10.4-23.6L-1367,516h10.2l17.1,41.3,17.2-41.3h9.8Z" transform="translate(2070 -379)"/></svg>