<svg id="Layer_1" data-name="Layer 1" xmlns="http://www.w3.org/2000/svg" viewBox="0 0 490 230"><defs><style>.cls-1{fill:#143c4b;}.cls-2{fill:#dc643c;}</style></defs><title>logo_h</title><path class="cls-1" d="M-408-532.1A24.9,24.9,0,0,0-432.9-557H-613.1A24.9,24.9,0,0,0-638-532.1v180.2A24.9,24.9,0,0,0-613.1-327h180.2A24.9,24.9,0,0,0-408-351.9V-532.1ZM-553-541h65v24h-65v-24Zm-8,198h-51.3c-4.9,0-9.7-5.6-9.7-10.4V-494h47v127h14v24Zm0-174h-14v14h-47v-30.5c0-4.9,4.9-7.5,9.7-7.5H-561v24Zm73,174h-65v-24h65v24Zm64-10.4c0,4.9-1.9,10.4-6.7,10.4H-480v-24h13v-14h43v27.6Zm0-36.6h-43v-10h-76v-30h71v-27h-71v-29h71v-31h-8v-24h49.3c4.9,0,6.7,2.6,6.7,7.5V-390Z" transform="translate(898 557)"/><path class="cls-2" d="M-668-532.1A24.9,24.9,0,0,0-692.9-557H-873.1A24.9,24.9,0,0,0-898-532.1v180.2A24.9,24.9,0,0,0-873.1-327h180.2A24.9,24.9,0,0,0-668-351.9V-532.1Zm-63-8.9v24h-8.9l-42.8,52.7L-825.5-517H-835v-24h104Zm-151,7.5c0-4.9,4-7.5,8.9-7.5H-844v24h-14v23h-24v-39.5Zm8.9,190.5c-4.9,0-8.9-5.6-8.9-10.4V-486h24v119h14v24h-29.1Zm38.1,0v-24h10v-94.6l39,44.6h6.6l38.4-44.6V-367h10v24H-835Zm151-10.4c0,4.9-2.7,10.4-7.5,10.4H-722v-24h14v-23h24v36.6Zm0-44.6h-24V-517h-14v-24h30.5c4.9,0,7.5,2.6,7.5,7.5V-398Z" transform="translate(898 557)"/></svg>